<?xml version="1.0" encoding="utf-8"?>
<!-- Generator: Adobe Illustrator 28.1.0, SVG Export Plug-In . SVG Version: 6.00 Build 0)  -->
<svg version="1.1" id="Camada_1" xmlns="http://www.w3.org/2000/svg" xmlns:xlink="http://www.w3.org/1999/xlink" x="0px" y="0px"
	 viewBox="0 0 24 24" style="enable-background:new 0 0 24 24;" xml:space="preserve">
<style type="text/css">
	.st0{fill:#000044;}
	.st1{fill:#FFFFFF;}
</style>
<path class="st0" d="M22,24H2c-1.1,0-2-0.9-2-2V2c0-1.1,0.9-2,2-2h20c1.1,0,2,0.9,2,2v20C24,23.1,23.1,24,22,24z"/>
<g>
	<path class="st1" d="M6.67,19V9.24H4.39V7.29c0.76,0,1.39-0.09,1.91-0.27c0.51-0.18,0.91-0.43,1.2-0.74
		c0.29-0.32,0.46-0.68,0.53-1.09h2.39V19H6.67z"/>
	<path class="st1" d="M16.35,11.4c-0.64,0-1.2-0.14-1.69-0.41c-0.49-0.27-0.87-0.64-1.15-1.12c-0.27-0.48-0.41-1.02-0.41-1.64
		c0-0.64,0.14-1.21,0.43-1.69c0.29-0.48,0.67-0.86,1.16-1.13C15.19,5.14,15.74,5,16.35,5c0.65,0,1.22,0.14,1.7,0.42
		c0.49,0.28,0.87,0.66,1.14,1.15c0.27,0.49,0.41,1.04,0.41,1.67c0,0.62-0.14,1.16-0.42,1.64c-0.28,0.48-0.66,0.85-1.15,1.12
		C17.55,11.26,16.99,11.4,16.35,11.4z M16.35,9.91c0.32,0,0.55-0.14,0.69-0.41c0.14-0.27,0.21-0.71,0.21-1.31
		c0-0.61-0.07-1.05-0.21-1.33c-0.14-0.27-0.37-0.41-0.69-0.41c-0.31,0-0.53,0.14-0.68,0.41c-0.15,0.27-0.22,0.72-0.22,1.33
		c0,0.6,0.07,1.03,0.22,1.31C15.82,9.77,16.05,9.91,16.35,9.91z"/>
</g>
</svg>
