<svg width="75" height="37" viewBox="0 0 75 37" fill="none" xmlns="http://www.w3.org/2000/svg">
<g id="Logo 1SRI" clip-path="url(#clip0_64_123)">
<path id="Vector" d="M4.07252 21.4017V6.61924H0.616516V3.66874C1.76402 3.66874 2.72552 3.53374 3.50252 3.26374C4.27952 2.99374 4.88402 2.62024 5.31752 2.14324C5.75102 1.66624 6.01652 1.11424 6.11252 0.487244H9.72902V21.4017H4.07252Z" fill="#F0F0F0"/>
<path id="Vector_2" d="M18.7395 9.88776C17.775 9.88776 16.9215 9.68376 16.179 9.27276C15.4365 8.86326 14.8575 8.29626 14.4435 7.57326C14.0295 6.85026 13.821 6.02076 13.821 5.08626C13.821 4.15176 14.0385 3.25926 14.472 2.52576C14.9055 1.79226 15.4935 1.22226 16.236 0.811259C16.9785 0.401759 17.8125 0.196259 18.738 0.196259C19.722 0.196259 20.5815 0.406259 21.3195 0.826259C22.0575 1.24476 22.6335 1.82376 23.0475 2.56176C23.4615 3.29976 23.67 4.14126 23.67 5.08476C23.67 6.02826 23.46 6.84876 23.04 7.57176C22.62 8.29476 22.0395 8.86176 21.297 9.27126C20.5545 9.68076 19.701 9.88626 18.7365 9.88626L18.7395 9.88776ZM18.7395 7.63176C19.221 7.63176 19.5705 7.42476 19.788 7.00926C20.0055 6.59376 20.1135 5.93376 20.1135 5.02776C20.1135 4.12176 20.0055 3.43176 19.788 3.01776C19.5705 2.60376 19.221 2.39676 18.7395 2.39676C18.258 2.39676 17.934 2.60376 17.712 3.01776C17.49 3.43176 17.3805 4.10226 17.3805 5.02776C17.3805 5.95326 17.4915 6.59376 17.712 7.00926C17.934 7.42326 18.276 7.63176 18.7395 7.63176Z" fill="#F0F0F0"/>
<path id="Vector_3" d="M35.589 21.6898C34.509 21.6898 33.441 21.5548 32.385 21.2848C31.329 21.0148 30.36 20.6053 29.478 20.0548C28.596 19.5058 27.87 18.8143 27.3015 17.9803C26.733 17.1463 26.4045 16.1653 26.3175 15.0373H32.0445C32.1495 15.5293 32.3625 15.9493 32.6805 16.2958C32.9985 16.6438 33.4305 16.9108 33.975 17.0983C34.5195 17.2858 35.1735 17.3803 35.9355 17.3803C36.3885 17.3803 36.8475 17.3248 37.3095 17.2138C37.7715 17.1028 38.16 16.9153 38.4735 16.6498C38.787 16.3843 38.943 16.0213 38.943 15.5578C38.943 14.9503 38.6925 14.5333 38.1915 14.3068C37.6905 14.0803 37.0965 13.9048 36.4125 13.7788L32.8395 13.1428C31.596 12.9208 30.5295 12.5473 29.643 12.0223C28.7565 11.4973 28.0785 10.8103 27.6105 9.96125C27.1425 9.11375 26.91 8.09525 26.91 6.91025C26.91 5.50175 27.3 4.30025 28.0815 3.30125C28.863 2.30225 29.9235 1.54175 31.263 1.01525C32.6025 0.488753 34.1085 0.227753 35.7765 0.227753C37.599 0.227753 39.1485 0.506753 40.4265 1.06625C41.7045 1.62575 42.684 2.40125 43.3695 3.39575C44.055 4.39025 44.412 5.53175 44.4405 6.82325H38.8575C38.8005 6.29375 38.6355 5.86325 38.3655 5.53625C38.0955 5.20925 37.731 4.96475 37.2735 4.80575C36.816 4.64675 36.264 4.56725 35.6175 4.56725C34.5765 4.56725 33.8475 4.75025 33.4335 5.11625C33.0195 5.48225 32.811 5.87825 32.811 6.30275C32.811 6.72725 32.982 7.10525 33.324 7.40825C33.666 7.71125 34.2765 7.93625 35.154 8.08025L38.2635 8.58575C39.7185 8.81675 40.9125 9.22175 41.8425 9.80075C42.7725 10.3798 43.4595 11.1028 43.9035 11.9698C44.346 12.8383 44.568 13.8313 44.568 14.9488C44.568 16.3093 44.175 17.4928 43.389 18.4993C42.603 19.5073 41.535 20.2903 40.185 20.8498C38.835 21.4093 37.302 21.6883 35.586 21.6883L35.589 21.6898Z" fill="#F0F0F0"/>
<path id="Vector_4" d="M48.186 21.4017V0.487244H57.6735C59.4855 0.487244 60.9435 0.787244 62.049 1.38424C63.153 1.98124 63.9555 2.78974 64.4565 3.80674C64.9575 4.82374 65.208 5.96374 65.208 7.22674C65.208 8.29624 65.0655 9.21124 64.782 9.96724C64.497 10.7247 64.107 11.3697 63.6105 11.9052C63.114 12.4407 62.5425 12.9057 61.8975 13.3002L65.571 21.4002H59.8005L56.763 14.1972H53.8125V21.4002H48.186V21.4017ZM53.8125 10.0032H57.0375C57.7605 10.0032 58.3605 9.71974 58.8375 9.14974C59.3145 8.58124 59.5545 7.95874 59.5545 7.28374C59.5545 6.56074 59.2935 5.94124 58.773 5.42524C58.2525 4.90924 57.6735 4.65124 57.0375 4.65124H53.8125V10.0032Z" fill="#F0F0F0"/>
<path id="Vector_5" d="M69.3735 21.4017V0.487244H75V21.4017H69.3735Z" fill="#F0F0F0"/>
<path id="Vector_6" d="M4.404 36.8023C3.5175 36.8023 2.7435 36.5923 2.0835 36.1723C1.4235 35.7523 0.912 35.1778 0.5475 34.4473C0.183 33.7168 0 32.8858 0 31.9528C0 31.0198 0.1815 30.2083 0.5415 29.5183C0.9015 28.8283 1.4115 28.2943 2.0715 27.9148C2.7315 27.5353 3.5085 27.3448 4.404 27.3448C5.1345 27.3448 5.787 27.4873 6.3645 27.7738C6.942 28.0603 7.4085 28.4563 7.7655 28.9648C8.121 29.4718 8.334 30.0553 8.4015 30.7183H5.8185C5.772 30.4348 5.685 30.1873 5.5575 29.9803C5.43 29.7733 5.2635 29.6128 5.058 29.5003C4.8525 29.3878 4.6065 29.3308 4.323 29.3308C4.0125 29.3308 3.7365 29.4118 3.495 29.5723C3.2535 29.7343 3.063 30.0088 2.925 30.3973C2.787 30.7858 2.718 31.3168 2.718 31.9918C2.718 33.0148 2.8695 33.7408 3.1695 34.1713C3.4695 34.6018 3.855 34.8178 4.3215 34.8178C4.605 34.8178 4.851 34.7458 5.0565 34.6018C5.262 34.4578 5.4285 34.2658 5.556 34.0258C5.6835 33.7858 5.7705 33.5248 5.817 33.2398H8.4C8.3355 33.7153 8.229 34.1668 8.079 34.5958C7.9275 35.0233 7.7055 35.4043 7.41 35.7388C7.1145 36.0718 6.7245 36.3328 6.2355 36.5218C5.748 36.7108 5.136 36.8053 4.4025 36.8053L4.404 36.8023Z" fill="#F0F0F0"/>
<path id="Vector_7" d="M9.18298 36.6748L12.441 27.4723H14.9745L18.2325 36.6748H15.789L15.1785 34.8928H12.276L11.652 36.6748H9.18298ZM12.798 32.7793H14.6175L13.7145 29.8393L12.798 32.7793Z" fill="#F0F0F0"/>
<path id="Vector_8" d="M19.716 36.6748V27.4723H23.3565C24.0345 27.4723 24.6465 27.5938 25.1925 27.8353C25.7385 28.0768 26.169 28.4308 26.4885 28.8958C26.8065 29.3608 26.9655 29.9263 26.9655 30.5923C26.9655 31.1998 26.832 31.7188 26.565 32.1538C26.298 32.5888 25.917 32.9233 25.425 33.1558C24.933 33.3883 24.3495 33.5068 23.676 33.5068H22.1925V36.6763H19.7175L19.716 36.6748ZM22.1655 31.6603H23.598C23.9115 31.6603 24.1725 31.5358 24.381 31.2853C24.5895 31.0348 24.693 30.7618 24.693 30.4648C24.693 30.1468 24.579 29.8738 24.3525 29.6473C24.126 29.4208 23.874 29.3068 23.5995 29.3068H22.167V31.6618L22.1655 31.6603Z" fill="#F0F0F0"/>
<path id="Vector_9" d="M28.638 36.6748V27.4723H31.113V36.6748H28.638Z" fill="#F0F0F0"/>
<path id="Vector_10" d="M35.205 36.6748V29.6488H32.5965V27.4723H40.3215V29.6488H37.6875V36.6748H35.205Z" fill="#F0F0F0"/>
<path id="Vector_11" d="M40.0545 36.6748L43.3125 27.4723H45.846L49.104 36.6748H46.6605L46.05 34.8928H43.1475L42.5235 36.6748H40.0545ZM43.6695 32.7793H45.489L44.586 29.8393L43.6695 32.7793Z" fill="#F0F0F0"/>
<path id="Vector_12" d="M50.586 36.6748V27.4723H53.061V34.6378H56.739V36.6733H50.586V36.6748Z" fill="#F0F0F0"/>
<path id="Vector_13" d="M61.4805 36.6748V27.4723H65.655C66.453 27.4723 67.0935 27.6043 67.5795 27.8668C68.0655 28.1293 68.418 28.4848 68.64 28.9318C68.8605 29.3803 68.97 29.8813 68.97 30.4363C68.97 30.9073 68.907 31.3093 68.7825 31.6423C68.6565 31.9753 68.4855 32.2588 68.2665 32.4943C68.0475 32.7298 67.797 32.9338 67.512 33.1078L69.129 36.6718H66.5895L65.253 33.5023H63.954V36.6718H61.479L61.4805 36.6748ZM63.9555 31.6603H65.3745C65.6925 31.6603 65.9565 31.5358 66.1665 31.2853C66.3765 31.0348 66.4815 30.7618 66.4815 30.4648C66.4815 30.1468 66.3675 29.8738 66.138 29.6473C65.9085 29.4208 65.655 29.3068 65.3745 29.3068H63.9555V31.6618V31.6603Z" fill="#F0F0F0"/>
<path id="Vector_14" d="M72.1215 36.8023C71.862 36.8023 71.568 36.7903 71.2365 36.7678C70.9065 36.7453 70.6455 36.7138 70.4535 36.6763V34.4488C70.5675 34.4608 70.6995 34.4758 70.848 34.4893C70.9965 34.5028 71.136 34.5118 71.268 34.5118C71.709 34.5118 72.0015 34.3993 72.1455 34.1743C72.2895 33.9493 72.3615 33.5998 72.3615 33.1243V27.4723H74.844V33.7603C74.844 34.4398 74.772 35.0038 74.628 35.4523C74.484 35.9008 74.2155 36.2398 73.8225 36.4648C73.431 36.6898 72.8625 36.8023 72.12 36.8023H72.1215Z" fill="#F0F0F0"/>
</g>
<defs>
<clipPath id="clip0_64_123">
<rect width="75" height="36.6045" fill="white" transform="translate(0 0.197754)"/>
</clipPath>
</defs>
</svg>
